<?xml version="1.0" encoding="utf-8"?>
<!-- Generator: Adobe Illustrator 18.1.1, SVG Export Plug-In . SVG Version: 6.00 Build 0)  -->
<svg version="1.1" id="Layer_1" xmlns="http://www.w3.org/2000/svg" xmlns:xlink="http://www.w3.org/1999/xlink" x="0px" y="0px"
	 viewBox="0 0 66.7 82.5" style="enable-background:new 0 0 66.7 82.5;" xml:space="preserve">
<polygon style="fill:#010101;" points="54.2,75.6 54.2,70.2 52,70.2 52,68.8 58.1,68.8 58.1,70.2 55.8,70.2 55.8,75.6 "/>
<path style="fill:#010101;" d="M33.4,74.3c-1,0-1.7-0.8-1.7-2.1c0-1.3,0.7-2.1,1.7-2.1c0.6,0,1.1,0.3,1.4,0.8l1.5-0.5
	c-0.5-1.2-1.5-1.8-2.9-1.8c-1.9,0-3.3,1.5-3.3,3.6c0,2.1,1.4,3.6,3.3,3.6c1.4,0,2.4-0.6,2.8-1.7l-1.5-0.5C34.4,74,34,74.3,33.4,74.3
	"/>
<path style="fill:#F37063;" d="M49.3,54c-6,0-7.7-5.3-9.3-9.9c-1.7-5-3-8.1-6.7-8.1c-3.7,0-5,3.1-6.7,8.1c-1.6,4.7-3.3,9.9-9.3,9.9
	S9.6,48.7,8.1,44c-1.7-5-3-8.1-6.7-8.1c-0.8,0-1.4-0.6-1.4-1.4s0.6-1.4,1.4-1.4c6,0,7.7,5.3,9.3,9.9c1.7,5,3,8.1,6.7,8.1
	c3.7,0,5-3.1,6.7-8.1c1.6-4.7,3.3-9.9,9.3-9.9c6,0,7.7,5.3,9.3,9.9c1.7,5,3,8.1,6.7,8.1c3.7,0,5-3.1,6.7-8.1
	c1.6-4.7,3.3-9.9,9.3-9.9c0.8,0,1.4,0.6,1.4,1.4s-0.6,1.4-1.4,1.4c-3.7,0-5,3.1-6.7,8.1C57.1,48.7,55.3,54,49.3,54"/>
<path style="fill:#FFCE67;" d="M44.3,61c-0.9,0.2-1.6,0.1-2.1-0.3c-1.7-1.1-2-4.2-2.4-7.2l0,0c-0.7-4.4-1.5-9.9-6.4-9.9c0,0,0,0,0,0
	c-4.9,0-5.7,5.5-6.4,9.9c-0.5,3-0.8,6.1-2.4,7.2c-0.5,0.4-1.2,0.5-2.1,0.3c-3-0.6-3.4-4.8-3.6-11.1c-0.2-6.5-0.4-13.8-7.2-13.8
	c-0.8,0-1.4,0.6-1.4,1.4c0,0.8,0.6,1.4,1.4,1.4c3.8,0,4.3,4.2,4.5,11.1c0.2,5.9,0.4,12.6,5.8,13.7c0.5,0.1,0.9,0.1,1.4,0.1
	c1.1,0,2.1-0.3,2.9-0.9c2.4-1.7,3-5.4,3.6-9c0.7-4.7,1.4-7.6,3.7-7.6h0c2.4,0,3,2.9,3.7,7.6c0.6,3.6,1.1,7.3,3.6,9
	c1.2,0.8,2.6,1.1,4.3,0.7c5.4-1.1,5.6-7.8,5.7-13.7c0.2-6.9,0.6-11.1,4.5-11.1c0.8,0,1.4-0.6,1.4-1.4c0-0.8-0.6-1.4-1.4-1.4
	c-6.8,0-7,7.3-7.2,13.8C47.7,56.3,47.4,60.4,44.3,61L44.3,61z"/>
<path style="fill:#7EC297;" d="M56.5,54.4c-0.6-0.4-1.5-0.2-1.9,0.4L44.3,70.7l-9.8-11.9L33.9,58c-0.1-0.1-0.3-0.2-0.5-0.2
	c-0.2,0-0.4,0.1-0.5,0.2l-0.5,0.6l-10,12.1L12.1,54.8c-0.4-0.6-1.3-0.8-1.9-0.4c-0.6,0.4-0.8,1.3-0.4,1.9l10.8,16.6l-1.9,2.3
	l-0.3,0.4c-0.5,0.7-0.8,1.6-0.8,2.5c0,1.2,0.4,2.3,1.3,3.1c0.8,0.8,1.9,1.3,3.1,1.3v0c2.4,0,4.4-2,4.4-4.4c0-0.8-0.2-1.7-0.7-2.4
	l-1.7-2.6l9.4-11.4l9.4,11.4L41,75.7c-0.5,0.7-0.7,1.5-0.7,2.4c0,2.4,2,4.4,4.4,4.4v0c1.2,0,2.3-0.5,3.1-1.3
	c0.8-0.8,1.3-1.9,1.3-3.1c0-0.9-0.3-1.8-0.8-2.5l-2.2-2.7l10.8-16.6C57.3,55.6,57.1,54.8,56.5,54.4 M22,79.8L22,79.8
	c-0.4,0-0.9-0.2-1.2-0.5c-0.3-0.3-0.5-0.7-0.5-1.2c0-0.3,0.1-0.7,0.3-0.9l0.2-0.3l1.3-1.6l1.2,1.9c0.2,0.3,0.3,0.6,0.3,0.9
	C23.6,79,22.9,79.8,22,79.8 M46.4,78.1c0,0.4-0.2,0.8-0.5,1.2c-0.3,0.3-0.7,0.5-1.2,0.5v0c-0.9,0-1.7-0.7-1.7-1.7
	c0-0.3,0.1-0.6,0.3-0.9l1.3-1.9l1.3,1.6l0.2,0.3C46.3,77.4,46.4,77.8,46.4,78.1"/>
<path style="fill:#62ADC6;" d="M34.3,20.7l11.4,16.2l13.1-20.7c0.4-0.6,1.2-0.8,1.9-0.4c0.6,0.4,0.8,1.2,0.4,1.9L46.7,40.2l-0.4,0.7
	c-0.1,0.2-0.3,0.3-0.6,0.3c-0.2,0-0.4-0.1-0.5-0.3l-0.5-0.7L33.3,24.1L21.7,40.6l-0.2,0.3c-0.1,0.2-0.3,0.3-0.5,0.3
	c-0.2,0-0.4-0.1-0.6-0.3l-0.2-0.4L5.6,17.6C5.2,17,5.4,16.1,6,15.7c0.6-0.4,1.5-0.2,1.9,0.4L21,36.8l11.3-16.1l0.4-0.6
	c0.1-0.2,0.3-0.3,0.5-0.3c0.2,0,0.4,0.1,0.5,0.3L34.3,20.7z"/>
<path style="fill:#785581;" d="M34.1,0.8L45.4,26l5.7-17.8c0.2-0.7,1-1.1,1.7-0.9c0.7,0.2,1.1,1,0.9,1.7l-7.2,22.7l-0.1,0.2
	c-0.1,0.3-0.3,0.5-0.6,0.5c-0.3,0-0.5-0.2-0.6-0.4L45,31.8L33.3,5.7L21.7,31.5L21.5,32c-0.1,0.2-0.3,0.4-0.6,0.4
	c-0.3,0-0.5-0.2-0.6-0.5l-0.1-0.5L13,9c-0.2-0.7,0.2-1.5,0.9-1.7c0.7-0.2,1.5,0.2,1.7,0.9L21.2,26L32.5,0.8l0.2-0.4
	C32.8,0.2,33,0,33.3,0c0.3,0,0.5,0.2,0.6,0.4L34.1,0.8z"/>
<path style="fill:#010101;" d="M11.8,68.8h-1.5l-2.7,6.9h1.6l0.5-1.2h2.7l0.5,1.2h1.6L11.8,68.8z M10.2,73.1l0.8-2.2l0.8,2.2H10.2z"
	/>
</svg>
