<?xml version="1.0" encoding="utf-8"?>
<!-- Generator: Adobe Illustrator 18.1.0, SVG Export Plug-In . SVG Version: 6.00 Build 0)  -->
<svg version="1.1" id="Layer_1" xmlns="http://www.w3.org/2000/svg" xmlns:xlink="http://www.w3.org/1999/xlink" x="0px" y="0px"
	 viewBox="0 0 1920 1146" enable-background="new 0 0 1920 1146" xml:space="preserve">
<path fill="#010101" d="M1897.9,8.9c-25.5-16.6-59.6-9.3-76.2,16.3l-416,643.6l-396.3-479.5L983,157.9c-5-5.8-12.4-9.7-20.5-9.7
	s-15.9,3.9-20.5,9.7l-18.6,22.4L519.8,668.8L103.3,25.6C86.7,0,52.6-7.3,27.1,9.3S-5.8,60,10.8,85.5l435.4,672.3l-77,93.3
	l-11.6,16.6c-20.5,29.4-31.3,64.2-31.7,100.6c-0.4,47.2,17.8,91.3,51.1,125c33.7,34.1,78.6,52.6,126.6,52.6l0,0
	c97.1-0.4,176.5-79.7,176.5-177.3c0-34.1-9.7-67.3-28.3-96l-69.3-106.8l380.4-460.2L1343,765.9l-69.7,106.8
	c-18.6,28.6-28.3,61.9-28.3,96c0,97.5,79,176.9,176.5,177.3l0,0c48,0,92.9-18.6,126.6-52.6c33.3-33.7,51.5-77.8,51.1-125
	c-0.4-36.4-11.2-71.2-31.3-100.6l-89-109.9l435.4-672.6C1930.8,59.6,1923.5,25.6,1897.9,8.9z M502.7,1035.7L502.7,1035.7
	c-18.2,0-35.2-7.4-48-20.1c-12.4-12.4-19.4-29-19.4-46.8c0-13.9,4.3-27.1,11.6-38.3l7.7-11.2l53.4-65l50.3,77.4
	c7,10.8,10.4,23.2,10.4,36.4C569.7,1005.5,539.9,1035.7,502.7,1035.7z M1489.2,969.1c0,17.4-6.6,34.1-19.4,46.8
	c-12.8,12.8-29.8,20.1-48,20.1l0,0c-37.2,0-67-30.2-67-67c0-12.8,3.5-25.5,10.4-36l50.7-77.8l53.4,65l7.7,11.2
	C1485.4,941.6,1489.2,954.8,1489.2,969.1z"/>
</svg>
