<?xml version="1.0" encoding="utf-8"?>
<!-- Generator: Adobe Illustrator 18.1.0, SVG Export Plug-In . SVG Version: 6.00 Build 0)  -->
<svg version="1.1" id="Layer_1" xmlns="http://www.w3.org/2000/svg" xmlns:xlink="http://www.w3.org/1999/xlink" x="0px" y="0px"
	 viewBox="0 424.3 1909.6 594.5" enable-background="new 0 424.3 1909.6 594.5" xml:space="preserve">
<path fill="#010101" d="M1412.6,1018.7c-171.1,0-221.4-151.3-265.9-284.8c-48-144-84.8-231.4-192-231.4s-144,87.5-192,231.4
	c-44.5,133.5-94.8,284.8-265.9,284.8S275.2,867.4,231.1,733.9c-48-144-84.8-231.4-192-231.4C17.4,502.4,0,485,0,463.4
	s17.4-39.1,39.1-39.1c171.1,0,221.4,151.3,265.9,284.8c48,144,84.8,231.4,192,231.4s144-87.5,192-231.4
	c44.5-133.5,94.8-284.8,265.9-284.8s221.8,151.3,265.9,284.8c48,144,84.8,231.4,192,231.4s144-87.5,192-231.4
	c44.5-133.5,94.8-284.8,265.9-284.8c21.7,0,39.1,17.4,39.1,39.1s-17.4,39.1-39.1,39.1c-107.2,0-144,87.5-192,231.4
	C1634,867.4,1583.7,1018.7,1412.6,1018.7z"/>
</svg>
