<?xml version="1.0" encoding="utf-8"?>
<!-- Generator: Adobe Illustrator 18.1.0, SVG Export Plug-In . SVG Version: 6.00 Build 0)  -->
<svg version="1.1" id="Layer_1" xmlns="http://www.w3.org/2000/svg" xmlns:xlink="http://www.w3.org/1999/xlink" x="0px" y="0px"
	 viewBox="0 240.5 1920 886.6" enable-background="new 0 240.5 1920 886.6" xml:space="preserve">
<path fill="#010101" d="M993.1,418.1l392.4,557.7l451.7-713.3c13.9-22.1,43-28.6,65-14.7c22.1,13.9,28.6,43,14.7,65l-493.8,779.5
	l-15.1,24c-3.9,6.2-11.2,10.4-19.4,10.4c-7.7,0-14.3-3.9-18.6-9.7l-16.6-23.6L960.6,535.4l-401.3,570.5l-7.7,11.6
	c-4.3,5.8-10.8,9.7-18.6,9.7c-8.1,0-15.1-4.3-19.4-10.4l-7.7-12.4L4.6,312.8c-13.5-22.1-7.4-51.1,14.7-65
	c22.1-13.9,51.1-7.4,65,14.7L536,975.8L926.9,420l15.1-21.3c4.3-6.2,10.8-10.1,19-10.1c7.7,0,14.7,3.9,18.6,9.7L993.1,418.1z"/>
</svg>
