<?xml version="1.0" encoding="utf-8"?>
<!-- Generator: Adobe Illustrator 18.1.0, SVG Export Plug-In . SVG Version: 6.00 Build 0)  -->
<svg version="1.1" id="Layer_1" xmlns="http://www.w3.org/2000/svg" xmlns:xlink="http://www.w3.org/1999/xlink" x="0px" y="0px"
	 viewBox="207.2 0 1507.9 1200" enable-background="new 207.2 0 1507.9 1200" xml:space="preserve">
<path fill="#ffffff" d="M989.3,30.1l418.1,932.1l209.2-657.8c8.5-26.5,36.8-41.1,63.3-32.8c26.5,8.5,41.1,36.8,32.8,63.3l-267,839.9
	l-2.7,8.8c-3,10-12.5,17-23.1,17c-9.7,0-18.2-5.8-21.9-14l-4.3-9.7L960.5,211.9L532,1167.1l-8.8,20.1c-4,8.2-12.2,14-21.9,14
	c-10.9,0-20.1-7.3-23.1-17l-5.2-16.7L209.6,333.6c-8.5-26.5,6.4-54.7,32.8-63.3s54.7,6.4,63.3,32.8l207.7,658.4L931.9,29.2l6.1-13.7
	c3.6-8.5,12.5-14.6,22.5-14.6S979.3,7,983,15.8L989.3,30.1z"/>
</svg>
